<svg version="1.2" xmlns="http://www.w3.org/2000/svg" viewBox="0 0 100 100" width="100" height="100"><style>.a{fill:#002aff}</style><path class="a" d="m50 82v-8c8.6 0 16.6-4.6 20.9-12.1q0.7-1.4 1.3-2.8 0.6-1.5 1-3 0.4-1.5 0.6-3 0.2-1.5 0.2-3.1c0-13.2-10.8-24-24-24v-8c17.6 0 32 14.4 32 32q0 2.1-0.3 4.1-0.2 2.1-0.8 4.1-0.5 2-1.3 3.9-0.8 1.9-1.8 3.7c-5.7 10-16.3 16.2-27.8 16.2z"/><path class="a" d="m29.3 37.9l-6.9-4.1c5.7-9.7 16.3-15.8 27.6-15.8v8c-8.5 0-16.4 4.6-20.7 11.9z"/><path class="a" d="m50 82c-17.6 0-32-14.4-32-32q0-2.1 0.3-4.2 0.3-2.1 0.8-4.2 0.6-2 1.4-4 0.8-1.9 1.9-3.8l6.9 4.1q-0.8 1.3-1.4 2.8-0.6 1.5-1.1 3-0.4 1.6-0.6 3.1-0.2 1.6-0.2 3.2c0 13.2 10.8 24 24 24z"/></svg>