<svg version="1.2" xmlns="http://www.w3.org/2000/svg" viewBox="0 0 100 100" width="100" height="100"><style>.a{fill:#f00;stroke:#333;stroke-linecap:round;stroke-width:2.8}.b{fill:#e0e0e0;stroke:#333;stroke-linecap:round;stroke-width:2.8}.c{fill:#333;stroke:#333;stroke-linecap:round;stroke-width:2.8}.d{fill:none;stroke:#333;stroke-linecap:round;stroke-width:2.8}.e{opacity:.2;stroke:#000;stroke-linecap:round;stroke-width:2.8}.f{fill:none;stroke:#f00;stroke-linecap:round;stroke-width:2.8}</style><path class="a" d="m67.2 20.7l12.1 12c1.3 1.2 1.9 2.9 1.9 4.6v40.5c0 1.9-1.5 3.4-3.4 3.4h-55.6c-1.9 0-3.4-1.5-3.4-3.4v-55.6c0-1.9 1.5-3.4 3.4-3.4h40.5c1.7 0 3.3 0.6 4.5 1.9z"/><path class="b" d="m29.8 81.2v-26.2c0-2.8 2.3-5.1 5.1-5.1h30.2c2.9 0 5.1 2.3 5.1 5.1v26.2h-40.4z"/><path class="b" d="m60.2 18.8v17.8c0 1.4-1.2 2.6-2.7 2.6h-25c-1.5 0-2.7-1.2-2.7-2.6v-17.8h30.3z"/><path class="c" d="m45 18.8h6.2v13.3h-6.2z"/><path class="d" d="m38.7 59.8h22.6"/><path class="d" d="m38.7 66.2h22.6"/><path class="d" d="m38.7 72.6h22.6"/><path class="e" d="m79.3 32.7c1.3 1.2 1.9 2.9 1.9 4.6v40.5c0 1.9-1.5 3.4-3.4 3.4h-34.4l15.1-62.4h4.2c1.7 0 3.3 0.6 4.5 1.9z"/><path class="f" d="m24.2 35v0.8"/><path class="f" d="m24.2 24.3v5.8"/></svg>