<svg version="1.2" xmlns="http://www.w3.org/2000/svg" viewBox="0 0 100 100" width="100" height="100"><style>.a{fill:#9191c6;stroke:#0807cc;stroke-width:2.8}.b{opacity:.2;fill:#100aaa;stroke:#100aaa;stroke-linecap:round;stroke-linejoin:round;stroke-width:2.8}.c{fill:none;stroke:#0807cc;stroke-width:2.8}.d{fill:#e1e2e7;stroke:#0807cc;stroke-width:2.8}.e{opacity:.2;fill:#100aaa;stroke:#100aaa;stroke-linejoin:round;stroke-width:2.8}.f{fill:#4b83e4;stroke:#0807cc;stroke-width:2.8}.g{opacity:.2;fill:#100aaa;stroke:#100aaa;stroke-width:2.8}.h{fill:#1319df;stroke:#0807cc;stroke-width:2.8}.i{fill:#8b93e2;stroke:#0807cc;stroke-width:2.8}.j{fill:none;stroke:#1319df;stroke-linecap:round;stroke-width:2.8}</style><path class="a" d="m73.1 67.4h-0.8q-1.1 0-2.1-0.4-1-0.4-1.7-1.1-0.8-0.8-1.2-1.8-0.4-0.9-0.4-2v-11.2q0-1.1 0.4-2.1 0.4-0.9 1.2-1.7 0.7-0.7 1.7-1.2 1-0.4 2.1-0.4h0.8q1 0 2 0.4 1 0.5 1.8 1.2 0.7 0.8 1.1 1.7 0.4 1 0.4 2.1v11.2q0 1.1-0.4 2-0.4 1-1.1 1.8-0.8 0.7-1.8 1.1-1 0.4-2 0.4z"/><path class="b" d="m78.4 50.9v11.2q0 1.1-0.4 2-0.4 1-1.1 1.8-0.8 0.7-1.8 1.1-1 0.4-2 0.4h-0.8q-0.8 0-1.5-0.1-0.7-0.2-1.3-0.6-0.6-0.4-1.1-0.9-0.5-0.5-0.9-1.2 0.2 0.1 0.4 0.1 0.3 0.1 0.6 0.2 0.3 0.1 0.6 0.2 0.2 0.1 0.5 0.1 0.3 0 0.6 0h0.9q1 0 2-0.4 1-0.4 1.7-1.1 0.8-0.8 1.2-1.8 0.4-1 0.4-2v-11.2c0-0.9-0.2-1.6-0.5-2.4 1.5 1 2.5 2.7 2.5 4.6z"/><path class="c" d="m50 19.3v25.4"/><path class="d" d="m50 25.6c-3.5 0-6.3-2.8-6.3-6.3 0-3.5 2.8-6.3 6.3-6.3 3.5 0 6.3 2.8 6.3 6.3 0 3.5-2.8 6.3-6.3 6.3z"/><path class="e" d="m56.3 19.6c0 1.4-0.5 2.7-1.4 3.7-0.9 1.1-2 1.8-3.4 2.2-1.3 0.3-2.7 0.2-3.9-0.3 2.5-0.5 5.1-2.7 6.6-6q0.2-0.4 0.4-0.8 0.1-0.4 0.3-0.9 0.1-0.4 0.2-0.8 0.1-0.5 0.1-0.9c0.8 1.1 1.2 2.4 1.1 3.8z"/><path class="a" d="m24.9 67q-1-0.4-1.8-1.1-0.7-0.8-1.1-1.8-0.4-0.9-0.4-2v-11.2q0-1.1 0.4-2.1 0.4-0.9 1.1-1.7 0.8-0.7 1.8-1.2 1-0.4 2-0.4h0.8q1.1 0 2.1 0.4 1 0.5 1.7 1.2 0.8 0.8 1.2 1.7 0.4 1 0.4 2.1v11.2q0 1.1-0.4 2-0.4 1-1.2 1.8-0.7 0.7-1.7 1.1-1 0.4-2.1 0.4h-0.8q-1 0-2-0.4z"/><path class="e" d="m31.3 46.9q0.5 0.5 0.9 1.1 0.5 0.7 0.7 1.4 0.2 0.7 0.2 1.5v11.2q0 1.1-0.4 2-0.4 1-1.2 1.8-0.7 0.7-1.7 1.1-1 0.4-2.1 0.4h-0.8c-2.7 0-4.9-1.9-5.3-4.5q0.3 0.1 0.6 0.2 0.2 0.1 0.5 0.2 0.3 0 0.6 0 0.3 0.1 0.6 0.1h0.8q1.1 0 2-0.4 1-0.4 1.8-1.2 0.7-0.7 1.1-1.7 0.4-1 0.4-2.1v-11.2q0-0.4 0-0.8 0.7 0.4 1.3 0.9z"/><path class="f" d="m67.3 77h-34.6q-0.8 0-1.6-0.3-0.7-0.3-1.3-0.9-0.6-0.6-0.9-1.3-0.3-0.8-0.3-1.6v-34.8q0-0.8 0.3-1.6 0.3-0.7 0.9-1.3 0.6-0.6 1.3-0.9 0.8-0.3 1.6-0.3h34.6q0.8 0 1.6 0.3 0.7 0.3 1.3 0.9 0.6 0.6 0.9 1.3 0.3 0.8 0.3 1.6v34.8q0 0.8-0.3 1.6-0.3 0.7-0.9 1.3-0.6 0.6-1.3 0.9-0.8 0.3-1.6 0.3z"/><path class="g" d="m68.9 34.3q0.7 0.3 1.3 0.9 0.6 0.6 0.9 1.3 0.3 0.8 0.3 1.6v34.8q0 0.8-0.3 1.6-0.3 0.7-0.9 1.3-0.6 0.6-1.3 0.9-0.8 0.3-1.6 0.3h-34.6q-0.8 0-1.6-0.3-0.7-0.3-1.3-0.9-0.6-0.6-0.9-1.3-0.3-0.8-0.3-1.6v-1h33.4q0.8-0.1 1.6-0.4 0.7-0.3 1.3-0.9 0.6-0.5 0.9-1.3 0.3-0.7 0.3-1.6v-33.7h1.2q0.8 0 1.6 0.3z"/><path class="h" d="m41.7 61v9.6h-1.3q-1 0-1.9-0.3-0.9-0.4-1.6-1.1-0.7-0.7-1-1.5-0.4-0.9-0.4-1.9 0-1 0.4-1.9 0.3-0.8 1-1.5 0.7-0.7 1.6-1.1 0.9-0.3 1.9-0.3z"/><path class="h" d="m41.7 61h5.5v9.7h-5.5z"/><path class="h" d="m47.2 61h5.6v9.7h-5.6z"/><path class="h" d="m61.5 61.3q0.9 0.4 1.6 1.1 0.7 0.7 1 1.6 0.4 0.8 0.4 1.8 0 1-0.4 1.9-0.3 0.8-1 1.5-0.7 0.7-1.6 1.1-0.9 0.3-1.9 0.4h-1.3v-9.7h1.3q1 0 1.9 0.3z"/><path class="h" d="m52.8 61h5.5v9.7h-5.5z"/><path class="i" d="m41.1 52.4c-2.7 0-4.8-2.1-4.8-4.7 0-2.7 2.1-4.8 4.8-4.8 2.6 0 4.7 2.1 4.7 4.8 0 2.6-2.1 4.7-4.7 4.7z"/><path class="i" d="m58.9 52.4c-2.6 0-4.7-2.1-4.7-4.7 0-2.7 2.1-4.8 4.7-4.8 2.7 0 4.8 2.1 4.8 4.8 0 2.6-2.1 4.7-4.8 4.7z"/><path class="j" d="m32.7 48.7v0.7"/><path class="j" d="m32.7 38.9v5.8"/><path class="b" d="m64.3 67.3c-0.7 1.9-2.5 3.3-4.7 3.3h-19.2q-0.8 0-1.6-0.2-0.7-0.2-1.3-0.7-0.6-0.4-1.1-1.1-0.4-0.6-0.7-1.3z"/></svg>