<svg version="1.2" xmlns="http://www.w3.org/2000/svg" viewBox="0 0 100 100" width="100" height="100"><style>.a{fill:#243fe7;stroke:#243fe7;stroke-width:2.4}.b{fill:#243fe7;stroke:#243fe7;stroke-linecap:round;stroke-linejoin:round;stroke-width:2.4}.c{fill:#1c4595;stroke:#243fe7;stroke-width:2.4}</style><path class="a" d="m39.9 71l-10.6-10.6c-0.8-0.8-0.5-2.1 0.6-2.5l5.6-1.7 8.5 8.6-1.7 5.6q-0.1 0.3-0.4 0.6-0.2 0.3-0.6 0.4-0.4 0.1-0.8 0-0.4-0.1-0.6-0.4z"/><path class="b" d="m52.1 84.3q0 0 0 0c6.1-5.2 3.3-10.7-0.2-15.5q-0.5-0.6-0.8-1.4-0.2-0.8-0.2-1.6-0.1-0.9 0.2-1.7 0.2-0.8 0.7-1.4l5.5-7.9c2-2.8 6.2-2.4 7.6 0.7 4.4 10.5 3.2 24.2-12.8 28.8z"/><path class="b" d="m44.7 35.4c3.2 1.3 3.6 5.6 0.8 7.5l-7.9 5.6q-0.7 0.4-1.5 0.7-0.7 0.2-1.6 0.2-0.8 0-1.6-0.3-0.8-0.2-1.4-0.7c-4.8-3.6-10.3-6.3-15.5-0.2q0 0 0 0c4.6-16 18.3-17.2 28.7-12.8z"/><path class="c" d="m71 55.5c-8.5 8.5-19.3 12.1-27.1 9.8l-8.9-8.9c-2.3-7.8 1.3-18.6 9.8-27.1 14.8-14.9 34.4-15.1 37.5-12 3.1 3.1 3.2 23.7-11.3 38.2z"/><path class="c" d="m70.4 39.4c-2.7 2.7-6.9 2.7-9.6 0-2.6-2.6-2.6-6.9 0-9.5 2.7-2.6 6.9-2.6 9.6 0 2.6 2.6 2.6 6.9 0 9.5z"/><path class="a" d="m83.3 32.1l-15.6-15.5c7.3-1.6 13-0.9 14.6 0.7 1.6 1.6 2.4 7.5 1 14.8z"/><path class="b" d="m30.3 74.8l-9.9 5.1-0.3 0.3 0.1-0.2-0.2 0.1 0.3-0.3 5.1-9.9-5.1-0.9 11.6-5.9 2.6 2.5 0.1 0.1 2.5 2.6-5.9 11.6z"/></svg>