<svg version="1.2" xmlns="http://www.w3.org/2000/svg" viewBox="0 0 100 100" width="100" height="100"><style>.a{fill:#f00}</style><path class="a" d="m79.2 45.1l-12.5 12.2q-0.1 0.2-0.3 0.4-0.1 0.2-0.2 0.4 0 0.2-0.1 0.4 0 0.3 0.1 0.5l2.9 17.2c0.3 1.6-1.4 2.8-2.8 2l-15.4-8.1q-0.2-0.1-0.4-0.2-0.3 0-0.5 0-0.2 0-0.5 0-0.2 0.1-0.4 0.2l-15.4 8.1c-1.4 0.8-3.1-0.4-2.8-2l2.9-17.2c0.1-0.6-0.1-1.3-0.5-1.7l-12.5-12.2c-1.2-1.1-0.5-3 1-3.3l17.3-2.5q0.2 0 0.5-0.1 0.2-0.1 0.4-0.2 0.2-0.2 0.3-0.3 0.2-0.2 0.3-0.4l7.7-15.7c0.7-1.4 2.7-1.4 3.4 0l7.7 15.7q0.1 0.2 0.3 0.4 0.1 0.1 0.3 0.3 0.2 0.1 0.4 0.2 0.3 0.1 0.5 0.1l17.3 2.5c1.5 0.3 2.2 2.2 1 3.3z"/></svg>